<?xml version="1.0" encoding="UTF-8" standalone="no"?>
<svg
   id="Layer_1"
   style="enable-background:new 0 0 30 30;"
   version="1.1"
   viewBox="0 0 30 30"
   xml:space="preserve"
   sodipodi:docname="nwg-screenshot.svg"
   inkscape:version="1.4 (e7c3feb100, 2024-10-09)"
   xmlns:inkscape="http://www.inkscape.org/namespaces/inkscape"
   xmlns:sodipodi="http://sodipodi.sourceforge.net/DTD/sodipodi-0.dtd"
   xmlns="http://www.w3.org/2000/svg"
   xmlns:svg="http://www.w3.org/2000/svg"><defs
     id="defs9" /><sodipodi:namedview
     id="namedview9"
     pagecolor="#ffffff"
     bordercolor="#000000"
     borderopacity="0.25"
     inkscape:showpageshadow="2"
     inkscape:pageopacity="0.0"
     inkscape:pagecheckerboard="0"
     inkscape:deskcolor="#d1d1d1"
     inkscape:zoom="23.6"
     inkscape:cx="14.978814"
     inkscape:cy="16.292373"
     inkscape:window-width="1918"
     inkscape:window-height="1012"
     inkscape:window-x="0"
     inkscape:window-y="0"
     inkscape:window-maximized="0"
     inkscape:current-layer="Layer_1" /><g
     id="g8"
     style="fill:#f9f9f9"
     transform="matrix(1.2812018,0,0,1.2638675,-4.0909091,-4.0215716)"><path
       d="M 6,19 V 17 C 6,16.448 5.552,16 5,16 v 0 c -0.552,0 -1,0.448 -1,1 v 2 c 0,0.552 0.448,1 1,1 v 0 c 0.552,0 1,-0.448 1,-1 z"
       id="path1"
       style="fill:#f9f9f9" /><path
       d="m 10,5 v 0 c 0,0.553 0.448,1 1,1 h 2 c 0.552,0 1,-0.448 1,-1 V 5 C 14,4.448 13.552,4 13,4 h -2 c -0.552,0 -1,0.448 -1,1 z"
       id="path2"
       style="fill:#f9f9f9" /><path
       d="m 5,14 v 0 c 0.553,0 1,-0.448 1,-1 V 11 C 6,10.448 5.552,10 5,10 v 0 c -0.552,0 -1,0.448 -1,1 v 2 c 0,0.552 0.448,1 1,1 z"
       id="path3"
       style="fill:#f9f9f9" /><path
       d="m 23,6 h 1 v 1 c 0,0.552 0.448,1 1,1 v 0 c 0.552,0 1,-0.448 1,-1 V 6 C 26,4.895 25.105,4 24,4 h -1 c -0.552,0 -1,0.448 -1,1 v 0 c 0,0.552 0.448,1 1,1 z"
       id="path4"
       style="fill:#f9f9f9" /><path
       d="m 16,5 v 0 c 0,0.552 0.448,1 1,1 h 2 c 0.552,0 1,-0.448 1,-1 V 5 C 20,4.448 19.552,4 19,4 h -2 c -0.552,0 -1,0.448 -1,1 z"
       id="path5"
       style="fill:#f9f9f9" /><path
       d="M 7,24 H 6 V 23 C 6,22.448 5.552,22 5,22 v 0 c -0.552,0 -1,0.448 -1,1 v 1 c 0,1.105 0.895,2 2,2 h 1 c 0.552,0 1,-0.448 1,-1 v 0 C 8,24.448 7.552,24 7,24 Z"
       id="path6"
       style="fill:#f9f9f9" /><path
       d="M 6,7 V 6 H 7 C 7.552,6 8,5.552 8,5 V 5 C 8,4.448 7.552,4 7,4 H 6 C 4.895,4 4,4.895 4,6 V 7 C 4,7.552 4.448,8 5,8 V 8 C 5.552,8 6,7.552 6,7 Z"
       id="path7"
       style="fill:#f9f9f9" /><path
       d="m 24,11 v 2.001 c 0,0.552 0.448,1 1,1 v 0 c 0.552,0 1,-0.448 1,-1 V 11 c 0,-0.552 -0.448,-1 -1,-1 v 0 c -0.552,0 -1,0.448 -1,1 z"
       id="path8"
       style="fill:#f9f9f9" /></g><g
     id="g9"
     style="fill:#f9f9f9"
     transform="matrix(1.2812018,0,0,1.2638675,-4.0909091,-4.0215716)"><path
       d="m 25,16 h -1.764 c -0.758,0 -1.45,-0.428 -1.789,-1.106 L 21.276,14.552 C 21.107,14.214 20.761,14 20.382,14 h -4.764 c -0.379,0 -0.725,0.214 -0.894,0.553 l -0.171,0.342 C 14.214,15.572 13.521,16 12.764,16 H 11 c -0.552,0 -1,0.448 -1,1 v 8 c 0,0.552 0.448,1 1,1 h 14 c 0.552,0 1,-0.448 1,-1 v -8 c 0,-0.552 -0.448,-1 -1,-1 z m -7,9 c -2.209,0 -4,-1.791 -4,-4 0,-2.209 1.791,-4 4,-4 2.209,0 4,1.791 4,4 0,2.209 -1.791,4 -4,4 z"
       id="path9"
       style="fill:#f9f9f9" /><circle
       cx="18"
       cy="21"
       r="2"
       id="circle9"
       style="fill:#f9f9f9" /></g></svg>
